<?xml version="1.0" encoding="UTF-8"?>
<!DOCTYPE svg PUBLIC "-//W3C//DTD SVG 1.1//EN" "http://www.w3.org/Graphics/SVG/1.1/DTD/svg11.dtd">
<!-- Creator: CorelDRAW (Evaluation Version) -->
<svg xmlns="http://www.w3.org/2000/svg" xml:space="preserve" width="6.3479mm" height="6.0494mm" version="1.1" style="shape-rendering:geometricPrecision; text-rendering:geometricPrecision; image-rendering:optimizeQuality; fill-rule:evenodd; clip-rule:evenodd"
viewBox="0 0 32.44 30.92"
 xmlns:xlink="http://www.w3.org/1999/xlink"
 xmlns:xodm="http://www.corel.com/coreldraw/odm/2003">
 <defs>
  <style type="text/css">
   <![CDATA[
    .fil0 {fill:white;fill-rule:nonzero}
   ]]>
  </style>
 </defs>
 <g id="Capa_x0020_1">
  <metadata id="CorelCorpID_0Corel-Layer"/>
  <path class="fil0" d="M16.25 6.84l14.1 0c1.76,0 2.09,-1.42 2.09,-3.42 0,-2 -0.34,-3.42 -2.09,-3.42l-14.9 0c-8.54,0 -15.46,6.92 -15.46,15.46 0,4.11 1.63,8.04 4.54,10.92 2.88,2.9 6.82,4.54 10.92,4.54l14.64 0c1.98,0 2.34,-1.59 2.34,-3.83 0,-0.26 0,-0.49 -0.02,-0.73l0.02 -0.02 0 -8.34c0,-0.05 -0.01,-0.1 -0.01,-0.15 0,-0.05 0.01,-0.1 0.01,-0.15 0,-0.93 -0.57,-1.73 -1.39,-2.06 -0.03,-0.01 -0.05,-0.02 -0.08,-0.03 -0.05,-0.02 -0.11,-0.04 -0.17,-0.05 -0.03,-0.01 -0.06,-0.02 -0.09,-0.02 -0.08,-0.02 -0.16,-0.03 -0.25,-0.04 -0.12,-0.01 -0.24,-0.02 -0.37,-0.02l-7.53 0c-1.93,0 -2.34,1.59 -2.34,3.83 0,2.24 0.36,3.83 2.34,3.83l1.73 0c-0.35,0.61 -0.93,0.97 -1.86,0.97l-6.19 0c-2.28,0 -4.47,-0.9 -6.08,-2.54 -1.61,-1.61 -2.52,-3.8 -2.52,-6.08 0,-2.28 0.9,-4.47 2.52,-6.08 1.61,-1.64 3.81,-2.54 6.08,-2.54z"/>
 </g>
</svg>
