<?xml version="1.0" encoding="UTF-8"?>
<svg id="Capa_1" xmlns="http://www.w3.org/2000/svg" version="1.1" viewBox="0 0 500 500">
  <!-- Generator: Adobe Illustrator 30.3.0, SVG Export Plug-In . SVG Version: 2.1.3 Build 182)  -->
  <defs>
    <style>
      .st0 {
        fill: #1a3760;
      }

      .st1 {
        fill: #fcc107;
      }
    </style>
  </defs>
  <rect class="st1" x="-1" width="502" height="500"/>
  <g>
    <path class="st0" d="M109.51,156.87c-33.5,0-60.75-27.25-60.75-60.75s27.25-60.75,60.75-60.75,60.75,27.25,60.75,60.75-27.25,60.75-60.75,60.75ZM109.51,69.6c-14.63,0-26.53,11.9-26.53,26.52s11.9,26.52,26.53,26.52,26.52-11.9,26.52-26.52-11.9-26.52-26.52-26.52Z"/>
    <path class="st0" d="M282.02,212.9h147.43c18.42,0,21.8-14.83,21.8-35.72s-3.6-35.74-21.8-35.74h-155.74c-89.23,0-161.59,72.37-161.59,161.59,0,42.94,17.08,84.07,47.42,114.18,30.12,30.34,71.24,47.42,114.17,47.42h153.05c20.67,0,24.5-16.63,24.5-40.01,0-2.7,0-5.17-.22-7.65l.22-.22v-87.2c0-.55-.06-1.04-.08-1.56.04-.54.08-1.07.08-1.62,0-9.74-5.99-18.08-14.49-21.54-.28-.12-.58-.21-.86-.32-.57-.21-1.16-.4-1.75-.56-.31-.08-.61-.17-.93-.24-.84-.19-1.7-.35-2.57-.45-1.23-.15-2.52-.24-3.89-.24h-78.69c-20.23,0-24.5,16.63-24.5,40.01s3.81,40,24.5,40h18.13c-3.67,6.37-9.7,10.11-19.45,10.11h-64.72c-23.83,0-46.75-9.44-63.6-26.52-16.86-16.85-26.3-39.78-26.3-63.61s9.44-46.74,26.3-63.6c16.85-17.08,39.78-26.53,63.6-26.53Z"/>
  </g>
</svg>